<?xml version="1.0" standalone="no"?>
<!-- Generator: Adobe Fireworks 10, Export SVG Extension by Aaron Beall (http://fireworks.abeall.com) . Version: 0.6.1  -->
<!DOCTYPE svg PUBLIC "-//W3C//DTD SVG 1.1//EN" "http://www.w3.org/Graphics/SVG/1.1/DTD/svg11.dtd">
<svg id="Untitled-Page%201" viewBox="0 0 330 83" style="background-color:#ffffff00" version="1.1"
	xmlns="http://www.w3.org/2000/svg" xmlns:xlink="http://www.w3.org/1999/xlink" xml:space="preserve"
	x="0px" y="0px" width="330px" height="83px"
>
	<g id="Layer%201">
		<g>
			<g>
				<path d="M 20.8374 34.0903 C 22.314 26.0308 28.2202 21.6011 37.3872 21.6011 C 41.5708 21.6011 44.77 22.647 46.9849 24.7388 C 49.1997 26.8921 49.9995 29.6606 49.3228 33.0444 C 48.2769 38.9507 43.2935 41.5962 34.2495 41.5962 C 32.0347 41.5962 29.5122 41.3501 26.6821 40.8579 L 26.313 43.0112 C 25.6362 47.0103 27.6665 49.1636 32.2808 49.1636 C 35.7876 49.1636 38.4331 48.1177 40.2173 45.9644 C 41.5093 44.5493 42.186 44.3032 43.478 45.2261 L 45.3853 46.4565 C 46.5542 47.2563 46.6157 48.3022 45.5698 49.5942 C 42.5552 53.4087 37.7563 55.3159 31.1733 55.3159 C 26.3745 55.3159 23.0522 54.0239 21.145 51.3784 C 19.2378 48.7944 18.6841 45.4722 19.4839 41.4116 L 20.8374 34.0903 ZM 36.3413 27.6304 C 31.8501 27.6304 28.7124 30.0913 27.9126 34.0903 L 27.6665 35.3823 C 30.5581 35.8745 33.0806 36.1206 35.2339 36.1206 C 39.479 36.1206 41.8784 34.8286 42.4321 32.2446 C 42.9858 29.2915 40.8325 27.6304 36.3413 27.6304 Z" fill="#1e4184"/>
				<path d="M 69.7515 34.644 C 71.2896 34.644 71.7817 35.1978 71.4741 36.7358 L 71.0435 39.4429 C 70.7358 40.981 70.1206 41.5347 68.5825 41.5347 L 54.4321 41.5347 C 52.771 41.5347 52.4019 40.981 52.7095 39.4429 L 53.1401 36.7358 C 53.4478 35.1978 54.063 34.644 55.6011 34.644 L 69.7515 34.644 Z" fill="#1e4184"/>
				<path d="M 95.4087 21.6011 C 104.022 21.6011 107.5903 26.3999 106.1138 34.521 L 104.5757 42.8882 C 103.1606 51.1938 97.9312 55.3159 88.7642 55.3159 C 87.2261 55.3159 85.1343 54.9468 82.4888 54.2085 L 77.9448 76.2954 C 77.7603 77.5874 76.9604 78.2026 75.6685 78.2026 L 72.3462 78.2026 C 70.9312 78.2026 70.562 77.7104 70.8081 76.2954 L 80.1509 26.8921 C 80.5815 24.9233 81.1353 24.1851 83.1655 23.3853 C 86.5493 22.2163 90.6714 21.6011 95.4087 21.6011 ZM 99.0386 34.2134 C 99.7153 30.1528 97.8081 28.1226 93.2554 28.1226 C 91.1021 28.1226 89.1948 28.3687 87.5337 28.7993 C 87.1646 28.9224 86.9185 29.1685 86.7954 29.5991 L 83.5962 47.8716 C 85.8726 48.4868 87.7798 48.7944 89.3179 48.7944 C 93.9937 48.7944 96.7622 46.5796 97.6235 42.2114 L 99.0386 34.2134 Z" fill="#1e4184"/>
				<path d="M 112.0845 33.7212 C 113.4995 26.0308 119.2827 21.6011 128.3267 21.6011 C 137.4321 21.6011 141.6772 26.4614 140.3853 34.2749 L 138.7856 43.3804 C 137.3706 51.0708 131.772 55.3159 122.605 55.3159 C 113.561 55.3159 109.1929 50.5171 110.4849 42.8267 L 112.0845 33.7212 ZM 133.3101 33.9058 C 133.9868 30.1528 131.772 28.061 127.2808 28.061 C 122.7896 28.061 119.8979 30.1528 119.2212 33.9058 L 117.6216 43.0112 C 116.9448 46.7026 119.0981 48.856 123.5894 48.856 C 128.0806 48.856 131.0337 46.7026 131.7104 43.0112 L 133.3101 33.9058 Z" fill="#1e4184"/>
				<path d="M 159.4614 21.6011 C 165.9219 21.6011 169.8604 23.8159 171.3369 28.1841 C 171.7666 29.4761 171.2744 30.3989 169.9834 30.9526 L 167.2764 31.9985 C 165.7988 32.5522 165.4907 32.3677 164.814 31.0757 C 163.9526 29.0454 161.8608 27.9995 158.5386 27.9995 C 154.7241 27.9995 152.5708 29.1069 152.1401 31.3218 C 151.6479 34.0288 153.4321 34.644 158.6616 35.1362 C 166.4756 35.936 170.5986 38.6431 169.3682 45.5337 C 168.3213 51.686 163.0298 55.3159 154.4165 55.3159 C 147.1567 55.3159 142.9731 52.855 141.9272 47.8716 C 141.6812 46.6411 142.2349 45.7798 143.6499 45.2876 L 146.603 44.4263 C 148.0181 43.9956 148.3257 44.1802 148.8794 45.5952 C 149.6177 47.8716 151.771 48.979 155.2778 48.979 C 159.5845 48.979 161.9839 47.7485 162.4146 45.3491 C 162.9067 42.6421 161.1226 41.9653 155.7085 41.4116 C 152.2632 41.104 150.1099 40.4888 147.772 39.0122 C 145.4341 37.5972 144.4497 34.8286 145.1265 31.0757 C 146.1724 25.1079 151.0942 21.6011 159.4614 21.6011 Z" fill="#1e4184"/>
				<path d="M 188.0742 15.1411 C 189.4893 15.1411 189.8584 15.5718 189.6123 16.9868 L 188.6279 22.5239 L 195.7031 22.5239 C 197.1182 22.5239 197.4873 22.9546 197.1797 24.3696 L 196.749 27.1997 C 196.5645 28.4917 195.8262 29.1069 194.5342 29.1069 L 187.5205 29.1069 L 185.3057 41.4731 C 184.8135 44.3647 184.998 46.272 185.7979 47.1948 C 186.5977 48.1177 188.3203 48.5483 191.0273 48.5483 C 192.5039 48.5483 192.873 48.979 192.627 50.4556 L 192.1348 53.2856 C 191.8271 54.7622 191.335 55.1929 189.8584 55.2544 C 184.6289 55.439 181.1836 54.5161 179.3994 52.5474 C 177.6152 50.5786 177.1846 46.9487 178.1689 41.7192 L 180.3838 29.1069 L 176.1387 29.1069 C 174.7236 29.1069 174.293 28.6147 174.5391 27.1997 L 175.0313 24.3696 C 175.2773 22.9546 175.8311 22.5239 177.3076 22.5239 L 181.4912 22.5239 L 182.4756 16.9868 C 182.7217 15.5718 183.2754 15.1411 184.6904 15.1411 L 188.0742 15.1411 Z" fill="#1e4184"/>
				<path d="M 209.8564 8.8657 C 211.2715 8.8657 211.6406 9.3579 211.3945 10.7729 L 209.3027 22.647 C 212.502 21.9702 215.0244 21.6011 216.8701 21.6011 C 225.4219 21.6011 228.8672 26.3999 227.3906 34.4595 L 225.8525 42.8267 C 224.4375 51.1323 219.1465 55.3159 209.8564 55.3159 C 205.4883 55.3159 201.9199 54.6392 199.0283 53.3472 C 197.2441 52.4243 197.0596 51.9321 197.3672 49.9634 L 204.2578 10.7729 C 204.4424 9.481 205.2422 8.8657 206.5342 8.8657 L 209.8564 8.8657 ZM 220.3154 34.0288 C 220.9922 29.9683 219.085 27.938 214.7168 27.938 C 212.6865 27.938 210.4717 28.3071 208.1953 29.0454 L 204.9961 47.3794 C 204.9346 47.687 204.9961 47.9331 205.3037 48.0562 C 206.6572 48.5483 208.3799 48.7944 210.4102 48.7944 C 215.2705 48.7944 218.1006 46.5796 218.9004 42.0884 L 220.3154 34.0288 Z" fill="#1e4184"/>
				<path d="M 233.4219 33.6597 C 234.8369 25.2925 239.8203 21.6011 249.3564 21.6011 C 254.0322 21.6011 257.6621 22.2163 260.1846 23.5083 C 261.9688 24.4312 262.1533 24.9233 261.8457 26.8921 L 257.4775 51.5015 C 257.2314 52.9165 256.7393 53.4087 255.2012 53.8394 C 251.1406 54.8237 247.0186 55.3159 242.7734 55.3159 C 234.2217 55.3159 230.4072 50.0864 231.8838 42.0269 L 233.4219 33.6597 ZM 248.7412 28.1226 C 243.7578 28.1226 241.1123 29.9683 240.3125 34.5825 L 238.8975 42.5806 C 238.2207 46.7026 240.0664 48.7944 244.4961 48.7944 C 246.5264 48.7944 248.6797 48.5483 250.9561 47.9946 L 254.2168 29.5991 C 254.3398 29.23 254.1553 28.9839 253.7246 28.7993 C 252.248 28.3687 250.5869 28.1226 248.7412 28.1226 Z" fill="#1e4184"/>
				<path d="M 283.0752 21.6011 C 291.627 21.6011 295.0723 26.3999 293.6572 34.521 L 290.5195 52.4858 C 290.2119 53.9009 289.6582 54.3931 288.2432 54.3931 L 284.8594 54.3931 C 283.4443 54.3931 283.0752 53.9009 283.3828 52.4858 L 286.582 34.1519 C 287.3203 30.1528 285.4746 28.1226 280.9834 28.1226 C 278.9531 28.1226 276.9229 28.3687 274.8926 28.9224 C 274.708 28.9839 274.5234 29.23 274.3389 29.5376 L 270.3398 52.4858 C 270.1553 53.7778 269.417 54.3931 268.125 54.3931 L 264.7412 54.3931 C 263.3262 54.3931 262.957 53.9009 263.2031 52.4858 L 267.6328 27.1997 C 268.0635 25.231 268.6172 24.4927 270.6475 23.6929 C 274.4004 22.2778 278.5225 21.6011 283.0752 21.6011 Z" fill="#1e4184"/>
				<path d="M 324.4834 52.1167 C 325.0371 53.7778 324.668 54.3931 322.8838 54.3931 L 319.8691 54.3931 C 317.7158 54.3931 317.3467 54.147 316.8545 52.6704 L 314.4551 44.1802 C 313.9014 42.0269 312.6709 41.1655 310.1484 41.1655 L 306.457 41.1655 L 304.4268 52.4243 C 304.1807 53.9009 303.627 54.3931 302.0889 54.3931 L 298.9512 54.3931 C 297.4131 54.3931 297.0439 53.9009 297.29 52.4243 L 304.6113 10.8345 C 304.9189 9.3579 305.4727 8.8657 307.0107 8.8657 L 310.1484 8.8657 C 311.6865 8.8657 312.0557 9.3579 311.748 10.8345 L 307.5645 34.8286 L 310.2715 34.8286 L 310.7021 34.8286 L 320.9766 23.939 C 322.207 22.647 322.6377 22.5239 324.9141 22.5239 L 327.9902 22.5239 C 329.959 22.5239 330.2051 23.2622 328.7285 24.7388 L 317.4697 36.3052 C 319.0078 37.105 320.1768 38.8276 320.9766 41.3501 L 324.4834 52.1167 Z" fill="#1e4184"/>
			</g>
			<g>
				<path d="M 81.6802 58.146 L 81.6802 58.146 Z" fill="#1e4184"/>
			</g>
			<g>
				<path d="M 87.0425 69.8364 C 88.1582 68.0239 89.8779 67.0708 91.9692 67.0708 C 94.5254 67.0708 96.0361 68.5581 96.0361 71.0454 C 96.0361 75.3442 93.3867 78.5278 89.8311 78.5278 C 87.2983 78.5278 85.7412 76.9712 85.7412 74.438 C 85.7412 72.9272 86.2524 71.0913 87.0425 69.8364 ZM 91.9927 76.0181 C 93.1543 75.0649 93.9678 72.9976 93.9678 71.1616 C 93.9678 69.5806 93.2476 68.7446 91.8765 68.7446 C 89.5991 68.7446 87.8325 71.2075 87.8325 74.4146 C 87.8325 75.9946 88.5298 76.7847 89.8779 76.7847 C 90.877 76.7847 91.4346 76.5063 91.9927 76.0181 Z" fill="#1e4184"/>
				<path d="M 101.0991 67.3501 L 100.8438 68.5815 C 101.0527 68.396 102.1221 67.0708 104.2134 67.0708 C 106.1191 67.0708 107.2808 68.0474 107.2808 69.4185 C 107.2808 69.9526 107.2114 70.5571 107.0718 71.2778 L 105.5845 78.2026 L 103.6323 78.2026 L 105.0269 71.6255 C 105.1196 71.1841 105.2358 70.4644 105.2358 70.0229 C 105.2358 69.1392 104.771 68.7446 103.7251 68.7446 C 102.7026 68.7446 100.7739 68.9302 100.0068 72.4858 L 98.7988 78.2026 L 96.8467 78.2026 L 99.1475 67.3501 L 101.0991 67.3501 Z" fill="#1e4184"/>
				<path d="M 113.1812 63.3296 L 110.021 78.2026 L 108.0688 78.2026 L 111.229 63.3296 L 113.1812 63.3296 Z" fill="#1e4184"/>
				<path d="M 114.8301 78.2026 L 112.8779 78.2026 L 115.1787 67.3501 L 117.1304 67.3501 L 114.8301 78.2026 ZM 116.0381 63.3296 L 117.9902 63.3296 L 117.5488 65.4907 L 115.5967 65.4907 L 116.0381 63.3296 Z" fill="#1e4184"/>
				<path d="M 121.5215 67.3501 L 121.2661 68.5815 C 121.4751 68.396 122.5439 67.0708 124.6357 67.0708 C 126.5415 67.0708 127.7031 68.0474 127.7031 69.4185 C 127.7031 69.9526 127.6338 70.5571 127.4941 71.2778 L 126.0068 78.2026 L 124.0547 78.2026 L 125.4492 71.6255 C 125.542 71.1841 125.6582 70.4644 125.6582 70.0229 C 125.6582 69.1392 125.1934 68.7446 124.1475 68.7446 C 123.125 68.7446 121.1963 68.9302 120.4292 72.4858 L 119.2212 78.2026 L 117.269 78.2026 L 119.5693 67.3501 L 121.5215 67.3501 Z" fill="#1e4184"/>
				<path d="M 133.2549 78.5278 C 130.7451 78.5278 129.188 76.9712 129.188 74.3911 C 129.188 70.2544 131.9766 67.0708 135.5786 67.0708 C 138.0654 67.0708 139.5293 68.5122 139.5293 70.9517 C 139.5293 71.4634 139.4595 71.9741 139.1807 73.3687 L 131.3027 73.3687 C 131.2793 73.8569 131.2329 74.3218 131.2329 74.5776 C 131.2329 76.0649 131.9302 76.7847 133.4175 76.7847 C 134.3003 76.7847 135.6484 76.6919 136.6943 74.647 L 138.7856 74.647 C 137.2285 77.9009 134.9746 78.5278 133.2549 78.5278 ZM 137.6235 70.8589 C 137.6235 69.4644 136.8569 68.7446 135.4624 68.7446 C 134.3237 68.7446 132.813 68.9536 131.7441 71.6958 L 137.5542 71.6958 C 137.6006 71.3472 137.6235 71.0454 137.6235 70.8589 Z" fill="#1e4184"/>
				<path d="M 151.4692 63.3296 L 150.377 68.5581 C 150.6792 68.3032 151.7017 67.0708 153.7002 67.0708 C 155.7456 67.0708 157.1167 68.5581 157.1167 70.7896 C 157.1167 74.9263 154.4209 78.5278 151.3301 78.5278 C 150.7256 78.5278 150.2144 78.4116 149.7495 78.1333 C 149.2852 77.8774 149.0293 77.6216 148.5879 76.9243 L 148.3091 78.2026 L 146.3569 78.2026 L 149.5171 63.3296 L 151.4692 63.3296 ZM 150.9814 69.6274 C 149.9126 70.7427 149.2617 72.8813 149.2617 74.4839 C 149.2617 75.9946 149.8892 76.7847 151.0977 76.7847 C 151.7715 76.7847 152.4453 76.5298 153.0264 76.0415 C 154.1421 75.1118 155.0249 72.9741 155.0249 71.2075 C 155.0249 69.6274 154.2813 68.7446 153.0034 68.7446 C 152.2129 68.7446 151.5161 69.0933 150.9814 69.6274 Z" fill="#1e4184"/>
				<path d="M 159.5303 70.7192 C 159.8555 68.9995 160.7617 67.0708 164.3867 67.0708 C 166.0371 67.0708 167.873 67.6753 167.873 69.4878 C 167.873 69.7671 167.8037 70.7192 167.6875 71.2544 L 166.7344 75.646 C 166.6875 75.9253 166.665 76.1577 166.665 76.3198 C 166.665 76.6685 166.7813 76.8315 167.1299 76.8315 C 167.3848 76.8315 167.6406 76.7388 167.8496 76.646 L 167.5479 78.2954 C 167.2227 78.4585 166.5713 78.5513 166.2695 78.5513 C 165.4102 78.5513 164.9219 77.9468 164.9219 76.8784 C 164.0615 77.9009 162.8066 78.5278 161.5283 78.5278 C 159.4375 78.5278 158.0195 77.2036 158.0195 75.3911 C 158.0195 72.9038 159.9717 72.0444 162.3887 71.7651 C 163.3418 71.6724 164.8516 71.5562 165.8047 71.5562 C 165.8975 71.1382 165.9678 70.7427 165.9678 70.3247 C 165.9678 69.2554 165.2471 68.6509 163.7832 68.6509 C 162.2031 68.6509 161.5518 69.4419 161.3662 70.7192 L 159.5303 70.7192 ZM 165.4795 72.8813 C 163.2021 72.9272 161.7607 73.2524 160.9941 73.6245 C 160.3203 73.9263 159.9717 74.4614 159.9717 75.2046 C 159.9717 76.1812 160.6924 76.8315 161.9932 76.8315 C 163.6904 76.8315 164.875 75.646 165.1777 74.2749 L 165.4795 72.8813 Z" fill="#1e4184"/>
				<path d="M 173.7959 67.3501 L 173.54 68.5815 C 173.75 68.396 174.8184 67.0708 176.9102 67.0708 C 178.8154 67.0708 179.9775 68.0474 179.9775 69.4185 C 179.9775 69.9526 179.9082 70.5571 179.7686 71.2778 L 178.2813 78.2026 L 176.3291 78.2026 L 177.7236 71.6255 C 177.8164 71.1841 177.9326 70.4644 177.9326 70.0229 C 177.9326 69.1392 177.4678 68.7446 176.4219 68.7446 C 175.3994 68.7446 173.4707 68.9302 172.7041 72.4858 L 171.4951 78.2026 L 169.543 78.2026 L 171.8438 67.3501 L 173.7959 67.3501 Z" fill="#1e4184"/>
				<path d="M 186.0166 63.3296 L 184.1572 71.9741 L 184.9248 71.2544 L 189.2471 67.3501 L 191.8965 67.3501 L 186.6904 71.8579 L 189.7354 78.2026 L 187.5732 78.2026 L 185.1338 73.1597 L 183.6699 74.3218 L 182.8564 78.2026 L 180.9043 78.2026 L 184.0645 63.3296 L 186.0166 63.3296 Z" fill="#1e4184"/>
				<path d="M 193.4043 78.2026 L 191.4521 78.2026 L 193.7529 67.3501 L 195.7051 67.3501 L 193.4043 78.2026 ZM 194.6133 63.3296 L 196.5654 63.3296 L 196.124 65.4907 L 194.1719 65.4907 L 194.6133 63.3296 Z" fill="#1e4184"/>
				<path d="M 200.0967 67.3501 L 199.8408 68.5815 C 200.0508 68.396 201.1191 67.0708 203.2109 67.0708 C 205.1162 67.0708 206.2783 68.0474 206.2783 69.4185 C 206.2783 69.9526 206.209 70.5571 206.0693 71.2778 L 204.582 78.2026 L 202.6299 78.2026 L 204.0244 71.6255 C 204.1172 71.1841 204.2334 70.4644 204.2334 70.0229 C 204.2334 69.1392 203.7686 68.7446 202.7227 68.7446 C 201.7002 68.7446 199.7715 68.9302 199.0049 72.4858 L 197.7959 78.2026 L 195.8438 78.2026 L 198.1445 67.3501 L 200.0967 67.3501 Z" fill="#1e4184"/>
				<path d="M 218.1045 67.3501 L 216.1523 76.5522 C 215.292 80.5962 213.6191 82.688 210.1797 82.688 C 207.8555 82.688 206.624 81.689 206.624 79.8755 C 206.624 79.7134 206.6475 79.5269 206.6475 79.3647 L 208.5293 79.3647 C 208.5996 80.5034 208.9482 80.9683 210.249 80.9683 C 212.1553 80.9683 213.2939 79.9458 214.1768 76.6685 C 213.0615 77.7847 212.3408 78.2026 210.877 78.2026 C 208.7158 78.2026 207.4141 76.8784 207.4141 74.6938 C 207.4141 70.5103 209.9238 67.0708 213.0146 67.0708 C 213.8975 67.0708 214.5254 67.3032 215.1299 67.8384 C 215.4316 68.0933 215.5713 68.3032 215.8496 68.8374 L 216.1523 67.3501 L 218.1045 67.3501 ZM 215.2227 71.2778 C 215.2227 69.6274 214.5254 68.7446 213.3174 68.7446 C 211.2949 68.7446 209.5059 71.4165 209.5059 74.4614 C 209.5059 75.7397 210.2266 76.5298 211.3877 76.5298 C 214.2002 76.5298 215.2227 73.0669 215.2227 71.2778 Z" fill="#1e4184"/>
			</g>
			<path d="M 58.7021 73.0542 L 11.8462 73.0542 C 5.2822 73.0542 -0.0576 67.7144 -0.0576 61.1509 L -0.0396 60.8833 L 8.0605 0.7808 L 53.0278 0.7808 C 60.6372 0.7808 66.8281 6.9722 66.8281 14.5815 L 66.8091 14.8579 L 65.0825 27.2524 C 64.9297 28.3462 63.9243 29.1138 62.8257 28.9565 C 61.7314 28.8042 60.9683 27.7944 61.1206 26.6997 L 62.8271 14.4497 C 62.7563 9.106 58.3877 4.7808 53.0278 4.7808 L 11.5576 4.7808 L 3.9434 61.2778 C 4.0112 65.5776 7.5303 69.0542 11.8462 69.0542 L 55.2207 69.0542 L 57.8745 50.0015 C 58.0273 48.9087 59.0332 48.1362 60.1313 48.2974 C 61.2256 48.4497 61.9888 49.4595 61.8364 50.5542 L 58.7021 73.0542 Z" fill="#d1534b"/>
		</g>
	</g>
</svg>